<svg xmlns="http://www.w3.org/2000/svg" viewBox="0 0 64 64">
  <!-- Ghost body (immune cell) -->
  <path d="M32 4C18.7 4 8 14.7 8 28v24c0 2 1.5 4 4 4 2.5 0 4-2 4-4v-4c0-2 1.5-4 4-4s4 2 4 4v4c0 2 1.5 4 4 4s4-2 4-4v-4c0-2 1.5-4 4-4s4 2 4 4v4c0 2 1.5 4 4 4s4-2 4-4v-4c0-2 1.5-4 4-4s4 2 4 4v4c0 2 1.5 4 4 4 2.5 0 4-2 4-4V28c0-13.3-10.7-24-24-24z" fill="#34C759"/>
  
  <!-- Left eye -->
  <ellipse cx="24" cy="28" rx="4" ry="5" fill="#1C1C1E"/>
  
  <!-- Right eye -->
  <ellipse cx="40" cy="28" rx="4" ry="5" fill="#1C1C1E"/>
  
  <!-- Smile -->
  <path d="M24 38c4 4 12 4 16 0" stroke="#1C1C1E" stroke-width="3" stroke-linecap="round" fill="none"/>
  
  <!-- Blush left -->
  <ellipse cx="18" cy="34" rx="4" ry="2" fill="#FF9500" opacity="0.6"/>
  
  <!-- Blush right -->
  <ellipse cx="46" cy="34" rx="4" ry="2" fill="#FF9500" opacity="0.6"/>
</svg>
